# xmcd CD database file
#
# Track frame offsets:
#	150
#	18913
#	39036
#	53429
#	71024
#	84141
#	106186
#	121347
#	141661
#	158689
#	173416
#	194234
#	208952
#	229048
#	246449
#	263146
#	282887
#	299177
#	316386
#	332132
#
# Disc length: 4585 seconds
#
# Revision: 0
# Processed by: cddbd v1.5.2PL0 Copyright (c) Steve Scherf et al.
# Submitted via: CDex 1.51
#
DISCID=2511e714
DTITLE=Various Artist - Country Lovin' Disc 2
DYEAR=2006
DGENRE=Country
TTITLE0=Gretchen Wilson - When I Think About Cheatin'
TTITLE1=Lonestar - Amazed
TTITLE2=Alan Jackson - I'd Love You All Over Again
TTITLE3=Reba McEntire - Forever Love
TTITLE4=Adam Harvey - Call It Love
TTITLE5=Wynonna - To Be Loved By You
TTITLE6=Steve Forde - Crazy Love
TTITLE7=Clint Black and Lisa Hartman Black - When I Said I Do
TTITLE8=Tanya Tucker - Love Me Like You Used To
TTITLE9=James Blundell - Deluge
TTITLE10=David Lee Murphy - Might Be Me
TTITLE11=Sara Storer - Star
TTITLE12=Travis Collins - I Was Wrong
TTITLE13=Steve Gibson - Warm Spanish Wine
TTITLE14=Jo Dee Messina - Stand Beside Me
TTITLE15=Jake Nickolai - Think About You
TTITLE16=Diamond Rio - One More Day
TTITLE17=The Sunny Cowgirls - Little Bit Rusty
TTITLE18=Willie Nelson - Let It Be Me
TTITLE19=Johnny Cash - Ring Of Fire
EXTD=YEAR: 2006
EXTT0=
EXTT1=
EXTT2=
EXTT3=
EXTT4=
EXTT5=
EXTT6=
EXTT7=
EXTT8=
EXTT9=
EXTT10=
EXTT11=
EXTT12=
EXTT13=
EXTT14=
EXTT15=
EXTT16=
EXTT17=
EXTT18=
EXTT19=
PLAYORDER=
